<?xml version="1.0" standalone="no"?>
<svg viewBox="-350 -150 1500 1500" style="width: 585px; height: 585px; justify-content: center; align-self: center; transform: scale(1, 1);" xmlns="http://www.w3.org/2000/svg"><rect x="-350" y="-150" width="100%" height="100%" fill="#ffffff" rx="30"></rect><g transform="rotate(359 410.36882877349854 609.7178897857666)"><g transform="translate(0 459)"><path d="M21.7014 752.639C26.9744 760.65 37.3464 759.418 41.7994 753.213C92.5054 765.027 144.488 760.371 195.899 757.475C340.772 751.58 486.462 770.058 630.749 750.728C646.055 747.667 663.87 749.13 676.394 738.514C696.425 715.041 692.111 679.402 688.92 650.812C663.343 489.648 626.98 327.006 608.841 164.806C607.828 149.356 614.195 130.159 619.903 115.635C621.313 112.933 630.224 110.285 634.848 107.168C649.039 96.9822 646.738 78.7282 634.436 68.0172C594.605 39.9412 539.157 49.7519 496.905 60.1104C488.807 29.6976 479.705 9.69509 464.288 7.71422C434.943 3.94392 363.76 -7.57751 341.834 7.71422C331.344 15.0297 324.611 40.8069 317.06 53.3642C261.993 52.3862 150.23 -21.2878 127.253 61.6752C108.585 62.9642 90.0954 79.2622 93.6664 98.8202C69.4554 120.214 88.5514 152.293 88.2164 178.922C85.0334 235.421 54.4614 285.949 41.7424 340.527C12.6694 446.382 -20.2366 638.931 15.8224 742.256C15.0464 741.851 13.3514 742.461 14.4494 743.32C18.5324 744.472 19.0634 749.615 21.7014 752.639Z" transform="translate(63.99979 -41.44802)" fill="#FFFFFF" stroke="none"></path><path d="M794.424 692.582C794.405 692.652 794.375 692.732 794.344 692.802C795.164 694.062 795.785 695.462 796.195 696.882C798.454 704.662 793.345 723.472 786.794 727.302C781.034 730.671 774.325 731.112 767.835 731.612C760.545 732.182 753.245 732.732 745.945 733.292C693.534 737.312 641.135 741.892 588.695 745.312C587.631 745.381 586.566 745.455 585.499 745.528C574.464 746.291 563.278 747.063 552.865 742.623C543.875 738.782 536.825 731.802 532.594 723.001C528.255 713.982 526.224 693.312 525.515 683.362C525.294 680.302 525.094 677.192 525.005 674.092C523.264 673.602 521.755 672.251 521.075 669.902C514.935 648.632 513.325 625.332 512.275 603.282C511.245 581.602 510.414 559.962 510.244 538.251C509.634 459.892 514.034 381.562 521.215 303.552C524.815 264.421 528.944 225.342 533.845 186.342C533.955 185.432 534.075 184.532 534.195 183.623C516.635 191.751 497.625 196.222 478.185 196.102C462.674 196.001 445.414 193.352 431.225 185.982C429.835 191.972 428.495 197.972 427.165 203.972C408.915 286.322 397.764 369.972 392.975 454.162C390.585 496.302 389.884 538.542 390.844 580.742C391.314 601.842 392.505 622.932 394.044 643.982C394.805 654.492 395.674 665.012 396.254 675.532C396.581 681.304 396.438 687.083 396.294 692.858C396.267 693.976 396.239 695.094 396.214 696.212C397.085 696.972 397.865 697.862 398.524 698.862C404.904 708.532 407.724 720.421 406.224 731.921C405.404 738.171 401.644 742.953 394.954 743.192C363.065 744.352 331.174 745.512 299.284 746.671C260.078 748.102 220.876 749.789 181.676 751.464C179.012 669.158 173.162 586.973 171.301 504.635C170.726 479.227 170.558 453.81 171.061 428.399C171.162 423.25 163.162 423.25 163.06 428.399C162.893 436.831 162.819 445.261 162.784 453.692C156.792 448.993 150.129 445.267 143.735 441.074C139.417 438.242 135.406 445.166 139.697 447.981C147.281 452.955 155.353 457.129 161.928 463.484C162.195 463.742 162.472 463.939 162.755 464.105C162.902 545.095 168.447 626.027 171.968 706.911C172.619 721.873 173.195 736.837 173.678 751.806C159.073 752.429 144.469 753.049 129.865 753.652C115.914 754.232 101.954 754.682 88.0045 755.182L86.5313 755.235C74.146 755.683 61.5699 756.137 49.3545 753.742C38.0845 751.522 28.2445 745.412 21.8545 735.832C18.8445 731.312 16.8245 726.092 16.2645 720.742C13.7745 721.352 10.6645 720.203 9.64449 717.352C5.62449 706.182 1.26449 695.912 0.324488 683.902C-0.605512 672.112 0.594488 660.421 2.26449 648.762C5.56449 625.852 12.4445 603.732 18.6945 581.512C24.2345 561.782 30.3545 542.192 34.9445 522.203C39.7345 501.302 42.1045 480.382 42.5245 458.942C42.7107 449.282 42.6606 439.622 42.6106 429.963C42.5451 417.314 42.4795 404.667 42.9445 392.022C43.6545 372.462 45.5145 352.982 48.2945 333.602C53.8145 295.142 64.2245 257.212 80.7345 221.972C88.7645 204.812 97.9445 187.782 108.684 172.142C113.984 164.421 119.994 156.852 126.284 149.902C129.094 146.802 131.964 143.703 134.954 140.782C122.884 136.962 114.254 126.972 116.724 112.692C117.984 105.453 122.224 98.8324 127.924 94.2724C128.164 94.0724 128.414 93.8824 128.664 93.7034C122.684 83.8924 126.184 72.1624 132.864 63.7324C140.994 53.4724 153.154 46.1124 166.004 43.8124C165.904 43.5224 165.804 43.2224 165.704 42.9324C162.835 34.1124 166.064 25.0724 173.204 19.3924C184.834 10.1324 200.844 5.37339 215.234 2.58239C231.035 -0.477612 247.154 -0.757612 263.084 1.42139C270.504 2.44239 277.774 4.13239 284.895 6.43239C292.324 8.82239 300.005 11.2514 306.775 15.1524C317.094 21.0824 332.734 30.3524 328.704 44.7124C328.194 46.5124 325.844 45.9534 325.665 44.3024C324.844 36.8224 311.984 33.2924 306.074 30.6234C299.495 27.6424 292.344 24.6924 285.384 22.7514C271.194 18.7824 256.294 17.1624 241.585 17.8024C226.964 18.4424 212.314 21.5624 198.755 27.0624C195.005 28.5824 185.094 31.1524 183.414 35.6234C182.054 39.2224 187.044 43.2124 190.454 45.5824C191.145 46.0724 191.774 46.4924 192.274 46.8224C200.465 52.3224 195.475 67.0824 185.224 63.5324C184.484 63.2724 183.734 63.0624 182.984 62.8924C173.035 60.5824 161.895 65.1024 154.184 71.2124C151.084 73.6624 146.554 77.5524 146.074 81.8324C145.917 83.26 145.931 83.26 146.085 83.2597C146.213 83.2595 146.439 83.2592 146.744 84.0924C146.814 84.2924 146.895 84.4324 146.964 84.5324C147.624 84.2724 148.285 84.0124 148.954 83.7424C153.624 81.8624 158.904 85.4024 160.714 89.5124C162.704 94.0624 160.854 99.4024 156.634 101.962C154.824 103.062 152.944 103.792 151.034 104.203C145.964 106.282 140.124 109.373 137.984 114.072C135.914 118.612 137.794 120.542 142.044 121.421C148.246 122.711 155.467 121.349 161.735 120.167C161.885 120.139 162.035 120.111 162.184 120.082C170.285 118.552 178.264 116.432 186.164 114.082C190.087 112.92 194.025 111.705 197.976 110.487C225.561 101.979 253.823 93.2624 282.574 100.453C282.215 99.5824 281.865 98.7034 281.514 97.8224C280.764 95.9424 283.604 95.0424 284.594 96.5224C286.114 98.7924 287.604 101.082 289.074 103.402C290.044 104.352 290.725 105.482 291.145 106.692C299.215 119.703 306.564 133.312 313.254 147.222C318.854 157.171 323.884 167.432 328.294 177.962C334.065 191.782 338.574 205.932 342.595 220.302C346.134 230.852 349.424 241.482 352.474 252.182C355.544 259.842 359.044 267.032 360.374 275.292C360.594 276.642 360.285 278.032 359.624 279.192C367.004 309.242 372.525 339.751 376.304 370.462C377.435 379.712 378.435 388.972 379.254 398.262C382.025 367.682 385.714 337.182 390.275 306.802C396.635 264.432 404.764 222.322 414.624 180.632C419.235 161.182 423.944 141.692 430.355 122.751C435.344 108.001 441.074 93.0224 449.385 79.7424C443.215 79.2424 437.014 78.8624 430.884 78.1124C421.484 76.9724 412.115 75.6234 402.785 74.0124C393.044 72.3224 383.384 70.1624 373.784 67.7924C364.454 65.5014 355.465 62.0424 346.365 58.9824C344.965 58.5124 345.544 56.5824 346.965 56.8124C366.145 60.0014 385.754 62.0324 405.104 63.9924C405.819 64.0643 406.535 64.1365 407.252 64.2089C423.608 65.8599 440.738 67.5889 457.234 66.8024C459.005 66.7224 460.764 66.6124 462.525 66.4724C468.474 65.9924 471.174 72.9824 468.885 77.5524C463.915 87.4324 458.574 97.1624 454.284 107.352C450.034 117.442 446.595 127.882 443.504 138.373C439.754 151.132 436.435 164.022 433.344 176.972C439.214 178.152 445.075 179.392 451.025 180.072C460.074 181.123 469.084 181.421 478.185 180.892C496.254 179.832 514.214 175.082 530.195 166.552C532.455 165.342 534.665 165.222 536.594 165.822C538.315 153.612 540.214 141.442 542.315 129.312L542.315 129.052C542.884 114.842 544.895 100.742 545.615 86.5424C546.195 75.1524 545.895 63.4824 547.025 52.0824C546.984 51.8924 547.005 51.6924 547.084 51.5124C547.284 49.5524 547.525 47.6024 547.825 45.6624C547.914 45.0524 548.734 45.2034 548.905 45.6624C549.754 47.8524 550.474 50.1024 551.094 52.4024C570.604 60.0224 589.825 68.4324 609.705 75.0924C620.204 78.6124 630.834 81.7424 641.335 85.2514C646.775 87.0624 652.134 89.0124 657.505 91.0224C658.594 91.4324 659.674 91.8024 660.734 92.1714C661.375 91.6424 662.125 91.1714 662.995 90.7724C667.474 88.7034 675.164 87.3524 677.764 82.5524C677.807 82.4686 677.809 82.1721 677.812 81.9284C677.814 81.6512 677.816 81.4423 677.875 81.6924C677.794 81.2624 677.734 80.9724 677.705 80.7924C677.745 80.9924 677.794 81.2424 677.825 81.3024C677.825 81.2514 677.784 80.9624 677.665 80.2324C677.665 80.2224 677.654 80.2324 677.654 80.2324C677.674 80.5724 677.475 80.3624 677.344 80.1124C677.125 80.0224 676.875 79.9534 676.604 79.8924C671.705 78.8524 668.955 73.6324 669.505 69.0224C670.125 63.8024 674.344 60.9424 679.234 60.4324C681.444 60.2034 684.824 60.0724 686.544 58.5224C688.503 56.7557 686.794 55.9682 685.013 55.1471C684.657 54.9829 684.298 54.8174 683.964 54.6424C676.854 50.9324 669.055 48.5324 661.234 46.8924C653.234 45.2124 645.095 44.5424 636.935 44.9214C629.144 45.2924 621.465 48.1234 613.755 48.1524C613.214 48.1524 612.844 47.4124 613.294 47.0324C617.104 43.7724 622.274 42.3824 627.025 41.0324C632.495 39.4724 638.094 38.4324 643.755 37.8124C654.965 36.5724 666.334 37.3024 677.294 39.9324C686.935 42.2514 700.784 45.3024 701.905 57.1624C702.505 63.4624 699.984 68.1624 696.065 71.7824C697.984 76.0724 698.724 80.9924 698.084 85.4324C696.604 95.7124 687.955 103.442 678.445 107.542C678.415 107.792 678.365 108.042 678.324 108.282C676.655 117.222 673.885 126.182 671.174 134.862C669.625 139.852 668.034 144.822 666.404 149.782C688.745 174.602 705.185 204.632 716.695 235.873C744.385 311.022 741.034 392.142 755.145 470.052C762.334 509.742 775.575 547.842 784.945 587.001C789.674 606.772 793.634 626.712 795.474 646.982C796.345 656.612 796.695 666.292 796.365 675.953C796.174 681.382 796.135 687.402 794.424 692.582ZM586.684 343.882C568.594 416.373 556.454 490.162 550.504 564.642C549.294 579.762 548.444 594.862 547.964 609.972C547.484 613.912 547.024 617.862 546.594 621.812C544.964 636.751 543.714 651.932 543.824 666.972C543.874 673.722 544.084 680.442 544.544 687.171C543.744 684.921 543.004 682.662 542.284 680.412C540.814 675.802 539.844 671.022 538.344 666.442C537.104 662.652 535.504 659.022 534.014 655.352L534.014 655.342C534.351 644.088 533.864 632.756 533.38 621.489C533.217 617.71 533.055 613.94 532.924 610.182C532.254 590.802 531.424 571.442 530.994 552.052C530.134 513.272 530.564 474.462 531.964 435.703C534.774 357.602 541.874 279.873 549.034 202.092C551.024 180.462 553.164 158.842 554.644 137.171C556.134 115.272 556.734 93.3324 556.904 71.3734C556.914 69.7924 554.514 69.3734 554.074 70.9024C553.684 65.6924 552.995 60.4924 551.844 55.4624C569.094 66.4624 587.284 75.9724 605.115 85.9724C614.505 91.2424 623.854 96.6024 633.534 101.322C638.854 103.921 644.224 106.312 649.704 108.572C650.611 108.946 651.512 109.342 652.41 109.737C657.139 111.817 661.812 113.872 667.064 112.501C667.604 112.362 668.115 112.162 668.604 111.902C667.894 113.251 667.185 114.592 666.505 115.953C664.145 120.642 661.894 125.352 659.714 130.102C659.135 130.532 658.625 131.123 658.224 131.892C657.164 133.962 656.135 136.052 655.134 138.171C654.935 137.982 654.734 137.792 654.534 137.602C653.695 136.812 652.534 138.001 653.274 138.862C653.615 139.251 653.945 139.632 654.274 140.022C647.755 154.052 642.454 168.802 636.995 183.203C630.284 200.902 623.924 218.732 617.934 236.682C606.125 271.992 595.704 307.762 586.684 343.882ZM656.703 374.626C646.253 381.017 632.531 376.584 622.188 372.352C617.479 370.425 619.553 362.689 624.315 364.638L624.416 364.68C632.284 367.9 643.725 372.582 651.997 368.109C660.287 363.625 660.661 351.291 660.724 343.152C660.763 337.998 668.761 338.002 668.724 343.152C668.64 354.225 667.159 368.23 656.703 374.626ZM215.444 397.839C213.711 397.71 212.027 396.705 211.587 394.903C208.886 383.845 206.771 371.799 209.283 360.52C210.403 355.489 218.114 357.63 216.997 362.646C215.016 371.54 216.59 381.154 218.647 390.023C241.547 391.026 264.205 384.767 286.388 378.64C292.374 376.987 298.325 375.343 304.236 373.854C309.24 372.594 311.352 380.312 306.363 381.568C300.41 383.068 294.415 384.717 288.384 386.377C264.521 392.943 240.096 399.664 215.444 397.839ZM695.284 536.687C695.338 591.434 700.041 656.977 706.804 711.271C707.432 716.312 715.44 716.375 714.804 711.271C708.041 656.977 703.338 591.434 703.284 536.687C703.279 531.54 695.279 531.531 695.284 536.687ZM610.581 600.914C617.821 610.292 626.818 617.68 637.36 623.084C641.933 625.429 645.987 618.529 641.398 616.177C632.164 611.443 623.862 605.13 617.49 596.876C614.388 592.858 607.435 596.837 610.581 600.914ZM233.591 669.165C263.557 646.15 294.714 624.812 328.055 606.957C332.595 604.525 328.56 597.617 324.017 600.048C290.676 617.904 259.52 639.243 229.553 662.257C225.526 665.349 229.507 672.302 233.591 669.165Z" transform="translate(11.99981 -26.99999)" fill="#000000" fill-rule="evenodd" stroke="none"></path></g><g transform="translate(225 0)"><g><g><path d="M340.529 155.003C338.376 136.088 341.162 96.5517 341.348 94.1497C342.529 78.9648 335.414 19.0018 321.964 24.5268C299.401 6.66576 269.351 2.72176 241.251 0.837757C182.883 -3.07624 120.791 5.90876 75.7204 45.1888C53.4316 65.5878 31.7323 95.2567 33.4765 126.149C13.2256 155.431 -15.3236 195.598 9.90814 229.831C18.4849 240.768 32.1161 244.841 42.8905 253.124C64.5622 270.604 78.1586 295.69 100.036 313.066C157.996 365.149 256.413 376.029 313.359 316.789C357.394 273.885 350.274 209.699 342.529 155.003C337.321 118.23 344.728 191.904 340.529 155.003Z" transform="translate(65.0005 149)" fill="#FFFFFF" stroke="none"></path><path d="M227.86 0.104592C211.919 -0.485408 195.89 1.47459 180.28 4.62459C149.299 10.8646 117.57 21.0746 89.509 35.7146C77.727 41.8646 66.8569 49.4596 57.054 58.2086C48.193 53.9716 34.213 53.6276 31.373 63.3436C30.558 66.1326 30.964 68.6606 32.134 70.8226C31.793 71.0166 31.456 71.2246 31.126 71.4456C28.8908 72.9424 27.6975 74.0315 26.3137 75.4062L25.221 76.5016C21.761 79.9726 21.434 86.3956 25.221 89.8226L25.739 90.2906L26.0576 90.5686C26.7029 91.1105 27.3954 91.5689 28.118 91.9486C14.847 112.287 5.83895 135.465 2.10995 159.685C-0.0810489 173.905 -0.720049 188.125 0.929951 202.435C1.72995 209.425 2.92995 216.885 5.37895 223.495C6.56995 226.725 8.24895 229.865 9.75895 232.965C11.4 236.345 14.089 238.815 16.299 241.835C16.539 242.145 16.919 242.305 17.289 242.315C16.62 243.695 16.009 245.095 15.44 246.485C12.169 254.475 9.64995 263.085 8.18995 271.595C5.43995 287.645 7.11995 305.695 19.339 317.705C24.209 322.485 31.749 326.315 39.16 327.335C36.789 329.775 34.879 332.675 33.35 336.015C30.49 342.245 35.259 350.675 42.839 348.355C44.28 347.915 45.709 347.355 47.11 346.735C49.289 351.065 53.95 353.995 58.95 353.245C61.86 352.805 63.959 351.675 65.4 350.085C69.009 358.065 73.799 365.315 79.8699 371.715C86.2889 378.495 93.379 384.605 99.7799 391.405C105.999 398.005 109.69 406.625 117.02 412.065C119.299 413.755 122.79 411.955 123.43 409.455C125.915 399.726 119.222 391.626 112.872 384.935L112.07 384.095C105.259 377.015 97.39 371.105 90.14 364.505C82.61 357.645 76.549 350.365 71.089 341.765C70.6174 341.025 70.1472 340.27 69.6753 339.507L67.53 336.025C67.419 335.515 67.299 335.015 67.16 334.525C67.049 332.555 66.39 330.685 65.1199 328.965C63.549 326.835 61.45 325.225 59.11 324.475C58.32 323.635 57.499 322.835 56.64 322.095C57.709 320.925 58.65 319.545 59.45 317.945C60.93 314.965 59.2 310.225 55.24 310.615C54.0504 310.729 52.8818 310.675 51.7142 310.621C50.4369 310.562 49.1608 310.503 47.86 310.665C47.5484 310.704 47.237 310.745 46.9256 310.786C44.7888 311.069 42.6557 311.351 40.499 311.055C36.07 310.425 32.1 308.025 29.22 304.665C22.009 296.265 21.249 284.185 22.759 273.705C23.4263 269.026 24.5669 264.428 25.7788 259.855L27.6525 252.851C28.7204 248.937 30.007 244.881 32.52 241.695C40.4061 231.694 53.9178 239.542 62.0054 245.562L62.74 246.115C62.81 246.165 62.87 246.185 62.94 246.185C63.37 246.885 63.83 247.575 64.31 248.235C66.959 251.815 70.169 254.995 73.4799 257.995L74.1553 258.611C74.6084 259.02 75.066 259.425 75.52 259.825C79.39 263.235 84.629 260.725 85.14 255.845C86.089 246.645 85.83 237.345 86.419 228.105C87.0089 218.855 88.07 209.635 89.6499 200.505C91.2299 191.385 93.27 182.355 95.759 173.455C97.009 168.995 98.379 164.585 99.839 160.195C100.95 156.815 101.78 151.335 104.709 148.985C107.36 146.845 112.35 146.485 115.6 145.795C120.14 144.825 124.709 143.965 129.259 142.995C137.77 141.165 146.27 139.175 154.65 136.815C162.95 134.475 171.18 131.715 179.15 128.395C176.86 132.235 174.589 136.085 172.339 139.945C169.259 145.235 173.299 150.885 178.89 151.355C184.629 151.835 190.44 151.405 196.039 150.045C197.23 149.755 198.32 149.425 199.33 149.035C205.479 148.594 211.755 147.191 217.533 145.767L220.23 145.095C231.209 142.335 241.759 138.565 252.16 134.115C253.325 133.617 254.491 133.109 255.657 132.592C259.971 131.29 264.22 129.777 268.386 128.056C283.831 130.393 299.585 129.487 314.759 125.755C321.31 124.145 328.43 122.125 335.2 119.325C338.57 125.075 343.74 129.735 349.509 133.115C350.14 138.105 350.49 143.145 350.72 148.145C351.459 164.085 352.299 180.025 353.169 195.955L353.449 201.113C355.094 232.07 356.102 263.076 356.339 294.065C356.56 322.305 354.83 350.185 339.53 374.745C326.64 395.465 306.53 411.955 283.18 419.355C268.839 423.895 253.64 425.355 238.669 423.905C231.36 423.195 224.12 421.525 217.129 419.285L216.124 418.968C209.105 416.802 202.421 415.732 195.1 414.845C190.259 414.255 189.089 420.535 191.52 423.485C196.66 429.705 202.15 433.855 209.789 436.675C216.69 439.215 224.009 440.825 231.28 441.875C246.28 444.035 261.41 443.795 276.23 440.405C303.73 434.125 328.039 417.605 344.97 395.195C363.56 370.585 369.549 341.165 369.94 310.855C370.361 278.421 368.752 245.831 366.61 213.451L366.16 206.755C365.2 192.745 364.18 178.685 362.589 164.705C365.22 164.965 367.98 164.145 370.22 161.895C374.584 157.531 375.617 150.814 376.136 144.748L376.27 143.075C376.69 137.485 375.839 131.765 374.31 126.395C372.202 119.041 368.668 112.849 363.676 107.664C370.362 100.458 373.963 90.2596 374.757 80.6316C375.33 73.6936 375.863 64.5746 368.207 61.3416C366.695 60.7026 365.13 60.4666 363.556 60.4996C363.96 58.0286 364.233 55.5276 364.386 52.9966C364.631 48.9726 360.502 44.5616 356.369 44.9776C355.113 45.1046 353.857 45.2396 352.601 45.3706C353.352 44.1696 354.106 42.9716 354.88 41.7856C358.134 36.8086 353.736 31.2596 348.597 30.8346C334.938 29.7056 321.418 26.9046 308.386 22.6616C295.294 18.3976 281.618 14.1066 269.184 8.17159C268.306 7.75259 267.338 8.06259 266.736 8.66659C256.273 1.69209 241.083 0.631691 229.089 0.152327L227.86 0.104592ZM50.9901 264.032C46.347 261.873 40.0585 258.949 35.2303 260.525C33.0202 261.245 32.3693 263.585 33.3693 265.305L33.2892 265.305L33.4965 265.636C34.4149 267.034 35.5933 267.982 36.8854 268.882L37.4893 269.295C35.8693 270.445 34.6292 272.105 34.0892 274.225C33.2202 277.595 34.6292 281.735 37.8293 283.425C39.1103 284.095 40.4992 284.465 41.9492 284.535C43.9947 284.625 45.7013 283.683 47.2494 282.505L47.7093 282.145C48.3903 281.605 48.9403 280.885 49.3792 280.105C53.1103 284.925 56.2493 290.615 62.8392 290.795C65.9893 290.885 69.5493 288.375 70.1992 285.185C70.2702 284.875 70.3293 284.565 70.3903 284.265C70.9993 281.275 70.5602 277.775 68.1102 275.635C63.1903 271.355 58.1103 267.305 52.1403 264.565C51.7701 264.395 51.3861 264.216 50.9901 264.032Z" transform="translate(48.00005 65.00051)" fill="#000000" fill-rule="evenodd" stroke="none"></path></g></g><g transform="translate(159 186)"><g><path d="M180.345 18.044C172.985 7.315 160.323 -0.00399509 147.164 3.27348e-06C142.229 0.00100491 134.692 0.532005 130.871 4.05501C128.17 6.545 127.769 9.74901 131.039 11.545C131.764 11.943 132.549 11.143 132.245 10.479C132.877 10.103 133.563 9.856 134.31 9.75801C135.705 9.51641 137.493 9.76313 139.035 10.0215L140.135 10.21C143.539 10.789 147.019 11.93 150.166 13.337C156.616 16.219 162.057 20.646 166.278 26.267L166.436 26.4716C169.09 29.8475 173.396 31.5439 177.423 29.188C181.013 27.089 182.846 21.689 180.345 18.044ZM33.7267 5.1487L35.2249 4.7115C36.3256 4.39269 37.4295 4.04111 38.5332 3.68958C45.2363 1.55471 51.9341 -0.578458 57.8689 4.6385C60.5829 7.0245 61.1419 11.9825 59.1999 14.9585C55.5157 20.6055 50.3495 20.8314 44.5982 21.0828C43.4432 21.1333 42.2647 21.1848 41.0699 21.2815C35.6299 21.7215 30.2709 23.3195 25.1929 25.3165C21.0429 26.9495 17.1939 29.2485 13.5599 31.8125C9.98991 34.3335 7.55091 38.2745 3.88891 40.5435C2.54691 41.3755 0.996911 40.5195 0.514911 39.1705C-1.19309 34.3855 1.69291 28.4245 4.13491 24.3475C7.11591 19.3735 11.6439 15.3055 16.5129 12.2275C21.8446 8.85643 27.7404 6.91001 33.7267 5.1487ZM148.26 42.0111C150.546 39.7239 153.758 40.0619 156.144 41.862L156.461 42.1101C158.71 43.1091 160.571 45.2921 161.793 47.3151C163.062 49.4161 163.905 51.5561 163.938 53.8691C169.472 53.8871 174.773 55.5471 178.836 60.0151C180.148 61.4571 181.044 63.6811 180.322 65.6361L179.892 66.7991C178.527 70.4915 172.394 72.617 170.309 68.2748L170.213 68.0631C167.998 62.9071 159.495 63.4481 154.976 63.9751C151.826 64.3441 148.715 65.1271 145.673 66.0041C144.601 66.3131 143.539 66.6485 142.478 66.991L141.417 67.3351C140.851 67.5181 137.903 69.1191 139.737 68.7401C140.23 68.6381 140.601 69.3561 140.098 69.5971C137.912 70.6421 135.58 68.5611 135.726 66.2131C135.979 62.1373 142.451 59.9025 145.565 58.4971L145.752 58.4121C146.946 57.8601 148.197 57.3311 149.488 56.8401C148.762 55.7601 148.162 54.5601 147.663 53.2721C147.191 52.0561 146.876 50.8741 146.703 49.5811C146.533 48.9491 146.533 48.3171 146.703 47.6841L146.729 47.5031C146.641 47.0851 146.599 46.6531 146.605 46.2181L146.587 46.0491L146.605 46.0491C146.666 44.5261 147.271 43.0001 148.26 42.0111ZM46.6698 41.9793C45.1228 41.3213 43.3608 41.1353 41.6148 41.6163C38.9898 42.3403 36.9398 44.5483 36.1548 47.0993L36.1418 47.0903L36.1188 47.2413C35.9768 47.7363 35.8788 48.2413 35.8358 48.7523L35.392 49.8363C35.1792 50.3632 34.9774 50.8917 34.8148 51.4353C33.7648 54.0583 34.2398 57.2763 35.7758 59.7193C25.2328 63.1083 14.5308 68.6733 6.17181 75.5403C4.40281 76.9943 6.43281 79.4803 8.22081 79.0483L8.21881 79.0553L9.63926 78.6946C20.0732 75.9715 29.9119 71.6317 40.6188 69.6743C45.8048 68.7253 51.3028 68.3903 56.5568 68.9753C58.7382 69.2179 60.8035 69.8406 62.8449 70.4561C66.0049 71.4089 69.1077 72.3445 72.4958 71.8263C76.1188 71.2723 77.9698 66.0943 75.9978 63.2183C72.4865 58.1004 65.9839 57.0907 60.0609 56.5402L59.0018 56.4453C57.9058 56.3503 56.8078 56.3133 55.7098 56.3023C55.8358 54.8923 55.7448 53.4373 55.3708 52.1563C55.0668 51.1143 54.2218 50.0233 54.0308 48.9853L54.4448 50.0393L54.2905 49.6242C54.1921 49.3461 54.1028 49.065 54.0228 48.7803C53.0088 45.4923 50.1238 42.6123 46.6698 41.9793ZM130.428 106.934C135.005 95.5229 120.515 88.1299 111.732 85.4159C109.366 84.5139 109.503 80.1089 113.87 80.0099C153.531 79.1059 153.748 140.665 94.7886 117.34C87.6536 114.223 91.4956 103.882 98.8746 106.326C99.2608 106.485 99.6663 106.654 100.089 106.83C108.658 110.396 124.337 116.921 130.428 106.934ZM123.534 146.337C126.965 140.283 137.203 141.267 138.768 148.328C141.943 162.642 124.874 175.86 111.91 176.19C99.0265 176.517 84.5715 165.552 86.4365 151.702C86.8975 148.276 91.4735 148.692 93.0335 150.84L93.6392 151.664C97.8762 157.356 103.467 163.248 111.331 161.86C114.59 161.286 117.55 159.25 119.52 156.629C121.896 153.466 121.635 149.689 123.534 146.337Z" transform="translate(53.99999 59.00019)" fill="#000000" fill-rule="evenodd" stroke="none"></path></g></g><g transform="translate(123 338)"></g><g transform="translate(47 241)"><g><path d="M375.513 33.9959C378.273 31.6829 383.089 31.1349 386.423 31.1279C394.028 32.5829 390.88 44.1729 376.385 36.9629C398.166 128.052 258.709 131.937 282.237 45.3469C268.157 41.9599 253.29 41.6839 240.365 48.1139C251.522 87.8139 214.401 125.982 171.734 116.181C144.179 109.783 125.789 88.4229 134.308 57.0269C128.899 58.7229 118.76 57.3109 115.622 53.0899C104.775 52.1634 93.9913 50.8415 83.2204 49.5212C59.091 46.5633 35.0273 43.6135 10.4674 45.1359C7.12749 45.5983 7.31436 47.952 7.50111 50.304C7.68714 52.6469 7.87304 54.9883 4.57241 55.4569C-3.01759 54.7649 -0.0355915 41.9389 5.39841 39.8539C13.0234 34.3889 78.5984 39.8119 116.105 49.6479C121.083 46.3825 128.583 47.3802 134.493 48.1664C135.445 48.2929 136.355 48.414 137.206 48.5109C144.594 30.0029 168.272 6.93191 192.028 10.8229C213.793 12.0919 232.079 20.6889 239.509 45.2399C250.854 34.9489 271.426 31.6259 284.509 39.4079C291.765 23.0939 304.532 10.8229 321.737 5.28991C343.585 -10.2001 368.707 11.0429 375.513 33.9959ZM358.311 87.4579C346.17 100.003 325.902 103.603 309.749 96.8749C268.273 79.5459 288.574 25.4959 320.561 10.9809C324.557 9.98491 329.894 7.62191 334.761 7.08591C334.928 7.0043 335.168 7.04274 335.465 7.09029C335.954 7.1686 336.598 7.27161 337.32 6.90391C372.591 10.8419 380.623 65.5939 358.311 87.4579ZM164.916 105.906C185.6 114.302 210.916 108.73 224.533 90.6689C249.948 57.3679 225.561 0.903908 166.504 23.0949C138.547 41.8849 124.054 89.8139 164.916 105.906ZM135.953 50.6509C135.915 50.6329 135.877 50.6239 135.838 50.6059C136.054 50.5109 136.27 50.4159 136.485 50.3189C136.415 50.5019 136.339 50.6829 136.271 50.8659C136.165 50.7929 136.072 50.7079 135.953 50.6509Z" transform="translate(13.99969 7.999794)" fill="#000000" fill-rule="evenodd" stroke="none"></path></g></g></g></g></svg>