<svg width="42" height="38" viewBox="0 0 42 38" fill="none" xmlns="http://www.w3.org/2000/svg">
<path d="M17 34V38H25V34H17ZM21 4L23.8284 1.17157C22.2663 -0.390525 19.7337 -0.390524 18.1716 1.17157L21 4ZM3.17157 16.1716L0.343146 19L6 24.6569L8.82843 21.8284L3.17157 16.1716ZM33.1716 21.8284L36 24.6569L41.6569 19L38.8284 16.1716L33.1716 21.8284ZM25 34V4H17V34H25ZM8.82843 21.8284L23.8284 6.82843L18.1716 1.17157L3.17157 16.1716L8.82843 21.8284ZM18.1716 6.82843L33.1716 21.8284L38.8284 16.1716L23.8284 1.17157L18.1716 6.82843Z" fill="url(#paint0_linear_7_192)"/>
<defs>
<linearGradient id="paint0_linear_7_192" x1="36" y1="-7.59091" x2="43.2683" y2="33.3695" gradientUnits="userSpaceOnUse">
<stop stop-color="#0894B3"/>
<stop offset="0.577926" stop-color="#84CDDA"/>
<stop offset="0.953125" stop-color="white"/>
</linearGradient>
</defs>
</svg>
