<?xml version="1.0" standalone="no"?>
<svg viewBox="-305 -150 1500 1500" style="width: 585px; height: 585px; justify-content: center; align-self: center; transform: scale(1, 1);" xmlns="http://www.w3.org/2000/svg"><rect x="-305" y="-150" width="100%" height="100%" fill="#ffffff" rx="30"></rect><g transform="rotate(359 519.7896137237549 600.2144107818604)"><g transform="translate(0 459)"><path d="M971.081 233.472C956.802 234.874 942.523 236.274 928.243 237.676C859.855 242.901 791.494 253.813 723.63 260.362C721.94 257.612 718.633 258.065 716.625 259.976C709.853 259.383 702.263 254.207 696.129 259.591C695.93 259.563 695.731 259.53 695.529 259.511C684.607 238.548 677.058 216.189 669.73 193.8C665.054 180.035 658.761 166.71 647.133 157.468C627.289 143.693 581.822 115.76 558.52 116.934C558.134 112.762 556.189 108.462 552.995 105.684C560.034 93.6851 531.892 85.8561 529.907 87.2471C531.179 47.1591 512.322 12.3451 470.742 4.36214C433.492 -3.39986 380.509 -4.70386 360.475 34.2251C358.273 33.9771 335.762 33.8599 333.584 34.1039C330.197 29.8149 293.008 70.457 308.25 84.606C171.978 144.888 94.4928 137.695 56.7747 307.164C51.6756 323.084 51.3042 340.505 45.9198 356.07C26.7635 400.801 11.2258 448.432 7.35888 497.104C-1.98054 499.497 -3.05463 515.964 7.76329 518.346C11.8955 519.257 15.3509 520.501 18.364 522.86C16.0086 562.746 25.6553 653.86 31.7335 653.579C44.127 693.022 99.4086 704.154 138.546 690.293C131.799 702.986 138.546 710.967 138.546 717.749C279.373 723.077 433.353 720.008 574.141 727.315C592.15 727.059 611.092 731.738 628.855 729.045C639.688 726.448 639.706 709.415 628.718 707.309L676.731 696.881C675.658 696.476 696.522 682.598 712.291 656.665C726.969 627.655 716.979 592.637 723.63 561.081C775.574 556.833 828.377 555.017 879.753 546.22C886.758 567.179 917.082 542.113 926.721 532.03C926.709 532.014 926.697 531.999 926.685 531.983C931.349 530.707 935.09 526.335 935.215 521.159C938.486 516.485 939.173 509.897 936.036 505.38C950.414 422.412 972.335 337.7 980.258 253.952C983.058 253.332 985.696 252.104 987.932 250.212L987.751 250.031C991.54 245.807 992.277 238.516 985.96 234.927C980.865 232.029 976.611 232.928 971.081 233.472Z" transform="translate(25.00024 -24.00044)" fill="#FFFFFF" stroke="none"></path><path d="M369.072 6.18403C373.315 -4.47897 387.658 -0.33397 386.059 10.868C385.102 17.578 381.427 24.665 378.126 30.546C375.438 35.333 372.372 40.005 368.215 43.593C375.615 50.497 383.296 57.149 391.172 63.465C399.766 70.356 408.803 76.708 418.144 82.546C426.335 87.666 434.896 92.202 442.617 98.044C449.796 103.475 456.336 110.007 459.664 118.534C463.209 127.614 461.668 136.992 459.058 146.066L458.758 147.092C456.091 156.082 451.474 166.919 457.876 175.389C461.135 179.701 465.873 182.755 469.964 186.202C473.6 189.266 477.013 192.598 480.143 196.177C486.968 203.979 492.519 212.758 496.022 222.54L496.335 223.429C499.338 232.088 501.532 242.696 497.475 251.198C496.311 253.635 492.557 252.843 491.905 250.47C490.431 245.094 490.508 239.464 489.272 234.012C487.986 228.342 485.846 222.96 483.051 217.868C477.643 208.017 470.319 199.603 461.666 192.489L459.076 190.383C452.326 184.843 446.124 178.966 444.754 169.798C443.288 159.989 447.218 150.645 449.745 141.361C451.506 134.891 452.081 128.689 450.178 122.842C447.853 126.637 444.681 130.239 442.172 133.452C437.175 139.853 432.131 146.215 427.1 152.589C421.942 159.125 416.911 165.764 412.12 172.575C409.977 175.622 407.857 178.687 405.744 181.755C404.155 184.061 401.939 186.365 400.207 188.717C400.628 189.975 400.596 191.425 399.833 192.455C390.648 204.865 377.581 178.971 374.173 172.429C367.233 159.106 362.068 144.952 355.105 131.632C347.89 117.824 339.674 104.384 330.517 91.778C324.978 84.153 318.77 76.991 313.703 69.124C301.766 79.948 286.058 87.204 271.63 93.784C255.777 101.013 239.308 106.918 223.055 113.188L218.254 115.053C190.249 125.983 161.56 137.99 138.283 157.403C110.93 180.216 94.7478 212.012 82.7008 244.938C68.8328 282.843 57.3598 321.771 46.6648 360.674C41.1918 380.579 35.9988 400.574 31.1168 420.633C26.8148 438.305 23.2488 456.153 18.2688 473.643C28.3688 473.286 39.8878 477.196 48.5108 478.325C87.8098 483.469 126.58 491.669 163.683 505.866C168.266 507.62 169.592 512.197 168.594 515.907C171.237 515.161 173.878 514.405 176.521 513.663C173.625 509.226 175.007 501.294 175.235 496.376L175.249 496.038C175.483 489.485 176.194 482.925 176.655 476.384C177.533 463.915 178.675 451.537 180.195 439.14L180.583 436.04C182.305 422.552 183.578 408.985 185.457 395.52L185.679 393.979C184.778 390.534 183.729 387.131 182.628 383.743C179.694 374.718 175.553 366.223 171.924 357.482C171.496 356.453 172.962 355.862 173.647 356.479C179.793 362.008 184.675 369.022 188.597 376.358C188.665 376.012 188.725 375.665 188.796 375.319L189.243 373.116C190.347 367.744 191.689 362.092 194.985 357.735C195.336 357.272 196.03 357.175 196.362 357.735C199.516 363.072 199.869 369.831 200.354 375.904C200.903 382.774 200.972 389.731 200.875 396.62C200.686 410.083 199.737 423.584 198.981 437.025C198.239 450.233 196.783 463.274 194.906 476.352L194.549 478.805C193.631 485.03 192.88 491.333 191.67 497.515L191.328 499.198C190.681 502.264 190.283 506.587 188.995 510.178C222.133 500.935 255.322 491.903 288.574 483.03C312.607 476.616 336.665 470.298 360.713 463.94C361.982 461.653 363.562 459.517 365.534 457.608C372.031 451.316 380.641 448.509 388.538 453.352C389.18 453.747 389.234 454.753 388.538 455.134C387.025 455.961 385.509 456.809 384.02 457.693L398.46 453.782C409.253 450.857 420.175 447.202 431.222 445.163C451.569 435.122 473.453 427.854 494.887 420.671L497.413 419.817C508.387 416.075 519.739 411.886 531.078 409.812C539.379 408.294 549.123 410.126 552.461 418.63C556.687 421.415 560.663 424.688 564.5 427.907C567.274 430.233 569.933 432.706 572.637 435.114L573.135 435.552C575.346 437.47 577.097 438.754 577.64 441.807C577.92 443.384 576.918 445.516 574.973 445.307C569.022 444.67 564.183 437.772 560.147 433.653C557.029 430.469 553.886 427.177 551.04 423.678C549.381 424.581 547.107 424.419 546.051 422.419C540.575 412.05 525.574 419.235 517.274 421.694L505.384 425.213C499.439 426.975 493.497 428.746 487.565 430.548C471.261 435.499 455.037 441.04 438.585 445.587C440.057 447.205 439.854 450.083 437.058 451.178C424.18 456.231 410.052 458.844 396.673 462.311C388.226 464.502 379.784 466.706 371.345 468.923C369.898 471.267 368.857 473.919 368.419 477.006C366.808 488.357 369.914 501.453 372.94 512.431L373.396 514.069C375.883 522.895 379.542 533.715 387.157 539.288C389.016 540.647 391.383 541.593 393.769 541.807C408.676 534.134 423.582 526.462 438.497 518.804C441.26 517.385 443.813 519.306 444.433 521.59C449.692 520.727 454.939 519.367 459.718 517.745C467.748 515.018 474.018 509.817 481.546 506.22C496.112 499.262 510.987 507.809 524.028 514.307L527.034 515.784C532.882 518.622 545.05 524.073 547.856 516.312C550.57 508.804 541.989 500.78 536.447 497.401C529.841 493.372 522.149 491.216 514.683 489.42C510.42 488.394 506.105 487.557 501.764 486.946C496.84 486.253 491.754 486.357 487.013 484.76C484.657 483.968 484.295 480.226 487.013 479.608C494.311 477.947 503.021 479.759 510.637 481.61L514.618 482.591C522.291 484.474 530.038 486.837 537.027 490.593C542.109 493.325 547.473 497.475 550.977 502.555C554.02 499.728 557.807 499.824 561.752 500.872L563.893 501.468C567.429 502.447 570.295 503.122 573.736 502.443C574.196 499.94 574.662 497.436 575.161 494.932C580.064 470.318 585.441 445.798 591.374 421.409C601.608 379.341 613.45 337.735 626.8 296.556L628.14 292.439C631.219 283.02 633.697 272.758 638.661 264.105C643.356 255.923 650.878 251.21 659.815 248.714C669.957 245.882 680.614 244.4 690.96 242.487C693.268 242.061 695.582 241.656 697.892 241.237C695.94 237.712 694.483 233.711 693.17 230.641L692.94 230.109C690.12 223.68 687.587 217.136 685.141 210.556L683.312 205.61C678.895 193.699 674.336 181.984 668.127 170.844C661.591 159.12 652.92 149.535 642.111 141.602C620.073 125.426 593.51 117.175 572.135 99.888C571.259 99.18 572.382 97.969 573.271 98.417C587.704 105.669 603.285 110.6 618.297 116.504L621.258 117.672C633.124 122.376 645.174 127.497 655.444 135.112C666.894 143.604 675.912 154.15 682.69 166.691C689.37 179.053 693.643 192.89 698.356 206.094L699.616 209.612C701.517 214.888 703.481 220.148 705.731 225.282C707.517 229.358 710.85 234.011 712.365 238.667C716.51 237.948 720.654 237.227 724.803 236.534C814.67 221.53 905.541 212.714 996.614 210.135C1000.18 210.034 1002.02 213.434 1001.49 216.542C992.755 268.223 984.988 320.081 976.466 371.801C972.746 394.374 968.952 416.93 965.069 439.475C963.102 450.897 960.828 462.275 958.965 473.714C957.461 482.952 956.369 492.262 953.787 501.286C951.471 509.377 947.917 517.179 942.08 523.352C935.788 530.006 927.006 533.227 918.166 534.749C895.725 538.611 872.707 540.188 850.084 542.761L729.637 556.464C731.397 572.463 731.529 588.212 730.721 604.397L730.261 613.233C729.884 620.339 729.435 627.457 728.414 634.49C727.134 643.313 723.098 650.784 717.153 657.374C711.694 663.426 705.062 668.59 698.611 673.538C691.915 678.676 684.996 683.635 677.123 686.812L676.101 687.218C669.194 689.914 656.237 694.09 646.797 692.564C648.031 698.747 650.419 705.395 648.302 711.513C647.32 714.354 643.605 715.771 641.329 713.354C636.82 708.563 636.468 702.235 635.4 695.985C634.289 689.481 633.331 682.954 632.48 676.411C630.834 663.76 629.553 650.993 629.162 638.235C628.76 625.133 628.915 612.013 629.621 598.925C629.984 592.204 630.434 585.487 631.287 578.809C631.651 575.961 632.023 573.111 632.448 570.27C632.603 569.234 632.775 568.203 632.96 567.174L622.149 568.394C605.572 570.244 588.988 571.915 572.294 572.175C570.317 572.205 568.796 571.305 567.802 569.994C566.743 571.719 564.899 572.953 562.258 572.943C538.945 572.856 517.235 565.233 496.031 556.249C485.343 551.719 474.821 546.815 464.117 542.324C454.126 538.132 443.445 535.141 433.695 530.419L408.075 543.857C407.887 544.518 407.646 545.143 407.39 545.666C405.722 549.071 402.433 550.918 399.074 552.309C395.85 553.647 392.511 554.063 389.258 553.725C369.828 563.907 350.393 574.079 330.945 584.228L311.493 594.368C272.737 614.547 234.134 635.057 195.134 654.762L192.263 656.207C178.792 662.962 164.327 669.809 149.378 674.918C149.112 678.702 149.28 682.382 149.597 686.387L149.673 687.259C150.119 691.992 151.075 697.923 147.278 701.292C145.303 703.044 141.775 703.051 140.432 700.409C137.995 695.618 140.183 688.065 140.955 682.86C141.229 681.009 141.563 679.106 142.057 677.26C124.919 682.362 107.262 684.836 89.8218 681.971C72.8418 679.184 59.6908 668.487 49.0888 655.403C37.8998 641.596 29.9488 625.505 25.6828 608.256C20.8278 588.628 20.5108 568.358 20.6248 548.253C20.7458 526.844 21.5378 505.329 24.1418 484.064C21.2888 483.393 18.1248 482.813 15.2418 483.013C13.8138 485.298 11.0438 486.26 8.5408 485.963C3.0978 491.966 16.9038 498.101 21.3158 499.637C22.8478 500.171 22.6838 502.659 20.9168 502.584L19.8038 502.531C12.9864 502.168 5.94317 501.004 1.9348 494.669C-1.2772 489.591 -0.312196 483.575 3.5168 479.434C6.0458 455.522 12.0918 432.237 17.7188 408.911C23.2408 386.016 29.3818 363.268 35.8908 340.635L38.8088 330.505C49.0571 295.016 59.7692 259.241 73.9058 225.163C80.9648 208.147 89.0968 191.444 100.12 176.607C110.395 162.776 122.526 150.941 136.47 140.833C162.465 121.987 192.967 110.6 222.937 99.7515L224.279 99.266C239.81 93.648 255.303 87.963 270.657 81.876C284.236 76.493 297.245 69.668 310.76 64.204C310.321 63.407 309.897 62.601 309.489 61.786L309.239 61.9962C309.196 62.0301 309.152 62.063 309.107 62.094C307.748 63.036 305.747 62.573 304.627 61.516C301.464 58.532 302.535 55.2195 304.646 52.1249L304.921 51.731C307.503 48.114 309.806 44.29 312.189 40.542L313.681 38.1982C317.681 31.9365 321.884 25.6331 327.218 20.458C329.688 18.06 332.392 16.266 335.257 14.929C335.012 14.411 337.16 13.352 337.769 13.885C346.846 10.563 357.289 11.259 367.185 12.175M723.809 557.126L711.189 558.561C697.305 560.141 683.415 561.668 669.524 563.181L639.352 566.46C639.275 568.18 639.066 569.862 639.028 571.161C638.831 577.858 638.684 584.558 638.545 591.257C638.266 604.685 638.572 618.126 639.456 631.528C640.313 644.514 641.441 657.502 643.195 670.401L643.554 672.979L643.762 674.335C645.193 674.473 646.599 675.153 647.768 676.55C650.32 679.597 659.561 676.635 663.17 675.351C669.105 673.239 674.694 669.671 679.851 666.093C684.887 662.599 689.422 658.526 693.78 654.234L697.345 650.708C700.892 647.183 704.443 643.428 706.616 638.995C709.563 632.983 709.944 625.603 710.808 619.055C711.872 611.001 713.139 602.948 714.478 594.934M357.454 472.584L356.145 472.928C308.594 485.563 261.114 498.571 213.417 510.648C189.813 516.626 166.097 522.169 142.464 528.032L138.638 528.989C119.994 533.701 101.126 539.372 86.8488 552.895C86.3218 553.393 85.5568 552.628 86.0528 552.099C101.44 535.719 123.324 528.785 144.336 522.774C148.22 521.663 152.109 520.578 155.994 519.473C127.418 509.286 98.3908 500.423 68.6938 494.102C61.0468 492.474 53.3108 491.279 45.6698 489.645C40.3409 488.505 35.1367 486.857 29.8641 485.489L25.7168 484.446L25.6617 497.554C25.5927 516.119 25.6257 534.669 26.5728 553.231L26.7521 556.67C27.8572 577.327 29.5821 598.413 36.9128 617.891C42.8698 633.719 52.3648 648.63 64.7818 660.159C71.0648 665.992 77.8198 670.533 86.1698 672.775C93.9228 674.856 102.046 675.1 110.016 674.545C148.245 671.878 182.275 651.111 215.483 633.917C269.8 605.794 324.123 577.685 378.495 549.67C377.025 548.665 375.641 547.507 374.382 546.206C367.091 538.676 363.245 528.368 360.719 518.385C358.03 507.759 356.422 496.37 356.235 485.4M426.637 560.526C427.117 560.268 427.673 560.591 427.695 561.133C427.863 565.286 425.568 569.382 423.853 573.123L423.672 573.522C421.589 578.156 419.308 582.728 416.949 587.228C412.234 596.219 407.334 605.114 402.22 613.883C391.936 631.524 380.508 648.422 367 663.782C363.949 667.252 358.931 662.803 360.889 659.067C370.329 641.057 381.334 624.052 392.662 607.195C398.333 598.755 404 590.307 409.727 581.905C412.116 578.399 414.536 574.906 417.021 571.466L418.52 569.408M990.592 220.45C942.875 221.891 895.214 225.003 847.724 229.88C803.558 234.415 759.554 240.452 715.798 247.978C706.659 249.55 697.531 251.186 688.414 252.887L682.946 253.915C673.828 255.643 662.689 256.356 654.571 261.227C646.012 266.362 643.699 277.094 640.851 285.944C637.503 296.352 634.24 306.79 631.065 317.253C618.457 358.796 606.94 400.699 596.666 442.879C591.566 463.816 587.041 484.87 582.273 505.883C578.037 524.553 573.363 543.012 568.48 561.495C569.082 561.027 569.82 560.671 570.711 560.481C594.959 555.322 619.71 553.08 644.321 550.23L646.702 549.952C672.161 546.958 697.62 543.986 723.094 541.122L891.753 522.155C901.7 521.037 912.356 520.885 922.036 518.216C938.494 513.676 942.351 495.276 945.112 480.623L945.196 480.18C953.521 435.907 960.148 391.249 967.912 346.864M572.405 510.029C565.857 509.597 556.895 503.6 551.927 504.03C554.535 508.406 555.712 513.397 554.209 518.727C550.026 533.559 531.109 525.885 521.997 521.354C514.526 517.637 507.312 513.089 499.041 511.348C489.671 509.378 483.323 513.104 475.407 517.399C468.905 520.926 461.824 523.459 454.542 524.77C450.67 525.468 446.992 525.542 443.321 525.27C443.1 525.45 442.851 525.617 442.567 525.766L440.625 526.785C449.406 527.187 458.35 529.897 466.522 532.378C474.99 534.948 483.303 538.046 491.572 541.214L499.706 544.341C519.772 552.024 540.542 559.321 562.258 559.257C563.819 559.253 565.098 559.685 566.105 560.39M535.769 463.555C542.238 462.764 548.209 463.612 553.378 467.823C559.612 472.901 563.8 481.323 572.762 481.876C575.375 482.037 575.982 485.711 573.385 486.479C566.714 488.454 561.313 484.845 556.768 480.159L553.712 476.966C549.221 472.316 545.078 468.72 537.457 468.998C529.295 469.296 521.119 471.182 513.01 472.141C503.824 473.227 494.64 474.153 485.425 474.952C484.997 474.989 484.924 474.315 485.325 474.216L495.646 471.647M529.525 437.109L530.592 437.002C539.985 436.09 548.576 436.055 556.966 441.108L558.575 442.081C566.139 446.678 574.372 452.094 579.102 459.538C579.876 460.757 578.597 462.19 577.302 461.88C568.211 459.698 561.565 453.028 553.92 448.036C545.34 442.434 536.477 443.358 526.694 444.228C517.222 445.071 507.755 446.229 498.376 447.808C489.563 449.29 480.722 451.63 471.82 452.376L471.822 452.358C470.805 452.356 470.225 450.829 471.262 450.311C480.296 445.8 490.759 443.665 500.586 441.604M814.89 344.264C813.982 339.921 819.324 337.907 821.799 341.352L822.326 342.079C827.675 349.407 835.411 358.603 835.018 367.923C839.72 368.026 844.595 370.883 846.427 375.126C847.273 377.089 847.561 379.415 847.374 381.823C851.648 382.155 856.309 384.961 858.922 387.693C863.253 392.222 863.594 398.622 860.488 403.914C853.713 415.45 838.914 419.646 826.421 420.583L825.976 420.615C813.072 421.507 794.478 421.266 785.63 410.195C777.095 399.516 786.528 390.87 796.201 386.175C793.683 383.876 792.379 380.579 793.605 377.102C795.758 370.991 803.359 368.63 807.654 364.382C812.889 359.202 816.349 352.097 814.97 344.669M821.982 353.655C820.558 359.839 817.063 365.495 812.193 369.977C810.331 371.691 808.294 373.217 806.13 374.528L805.87 374.679C803.95 375.757 799.229 377.777 799.592 380.196C799.966 382.682 807.657 386.573 809.753 386.575C810.23 386.575 810.5 387.32 810.013 387.536C806.214 389.214 802.896 389.933 799.182 388.16C796.7 390.694 794.289 393.316 791.901 395.915C787.677 400.514 789.122 405.37 794.112 408.794C802.13 414.296 814.318 414.162 823.673 413.762C833.089 413.36 843.154 411.26 850.509 404.988L850.83 404.709C854.827 401.154 858.478 395.13 852.357 391.706C849.959 390.365 847.37 390.444 845.094 389.792C842.964 393.967 839.508 397.311 835.292 397.956C831.885 398.477 829.539 394.195 832.638 392.146L833.334 391.714C837.226 389.23 840.547 385.404 840.459 380.421C840.399 376.962 835.569 372.594 832.422 375.844L832.279 375.999C829.645 378.967 825.008 375.227 826.739 371.938L826.823 371.789M207.862 181.676C207.85 180.933 208.895 180.655 209.26 181.298C215.372 192.051 218.568 205.232 221.824 217.079C225.233 229.489 227.986 242.025 230.46 254.653C235.468 280.224 238.137 305.648 238.319 331.71C238.343 335.431 232.281 336.421 231.688 332.608C227.751 307.257 223.979 281.88 220.012 256.536C218.016 243.789 215.693 231.091 213.471 218.382M268.371 200.405C267.921 198.922 270.078 198.426 270.63 199.782C282.896 229.891 287.051 264.013 279.176 295.778C277.97 300.637 270.854 298.532 271.763 293.734M426.588 173.651C426.526 172.541 427.967 172.366 428.51 173.13C434.322 181.319 436.733 192.286 446.93 196.518C452.021 198.631 457.75 198.263 462.248 201.832C465.255 204.219 467.561 207.987 465.304 211.602C464.576 212.77 462.538 213.355 461.55 212.086C460.108 210.237 459.345 208.023 457.386 206.637C454.623 204.682 450.897 204.561 447.729 203.642C443.631 202.454 440.019 200.375 437.061 197.286M523.686 37.0674C524.285 36.7624 524.86 36.9574 525.243 37.4754C525.79 38.2134 525.723 38.9314 525.053 39.4374C525.948 41.2664 527.005 45.8484 527.156 46.5154C527.768 49.2194 528.419 51.9074 529.1 54.5934C530.474 60.0104 531.678 65.4694 533.053 70.8884C534.511 76.6324 536.248 82.3154 538.181 87.9164C538.306 88.2791 538.443 88.6493 538.587 89.025L538.807 89.5924L538.861 89.5064C539.254 88.8854 540.072 89.3194 539.975 89.9754C539.885 90.5734 539.764 91.1684 539.662 91.7664L539.865 92.3022C541.129 95.7053 541.995 99.2895 539.675 102.292C538.807 103.415 537.852 104.08 536.662 104.278C534.754 110.568 532.36 116.741 529.797 122.669L529.046 124.401C525.276 133.051 521.255 141.587 515.252 148.951C508.698 156.991 499.683 162.481 493.974 171.291C491.318 175.389 489.47 179.698 487.97 184.326L487.406 186.083C486.341 189.357 485.113 192.529 482.042 194.449C481.062 195.061 479.594 194.866 478.804 194.031C472.507 187.37 479.099 174.932 482.896 168.483C488.174 159.515 495.813 153.778 503.462 147.012C511.707 139.719 516.966 129.963 522.053 120.352C525.169 114.464 528.177 108.449 531.344 102.535C528.035 99.6111 526.976 93.8021 525.855 89.7645L525.753 89.4024C523.9 82.9364 522.428 76.3024 521.498 69.6394C520.603 63.2328 520.23 56.9184 520.466 50.4759L520.535 48.8348M535.988 67.5592C535.257 66.5572 536.467 65.4222 537.47 65.6312C543.569 66.8922 549.531 70.5835 555.004 73.5683L555.588 73.8852C559.957 76.2412 564.353 79.1272 566.647 83.7042C569.142 88.6788 568.937 94.4084 568.597 99.8144L568.564 100.32C568.147 106.803 568.08 113.539 566.708 119.905C566.006 123.163 563.055 124.081 560.532 123.311C557.53 132.79 549.097 139.774 542.937 147.254C535.083 156.79 536.561 169.665 537.382 181.15C537.714 185.8 531.93 187.122 528.951 184.641L522.086 178.939C520.943 177.987 519.801 177.034 518.662 176.076C517.687 175.256 516.721 174.429 515.762 173.591L514.33 172.327C513.695 171.759 510.894 168.63 510.075 168.5C508.092 168.185 503.379 173.413 501.766 175.053L501.561 175.257C498.525 178.234 495.782 181.437 493.227 184.834C492.757 185.458 491.838 184.94 492.174 184.219C494.464 179.315 497.126 174.626 500.287 170.238L500.925 169.364C503.028 166.53 505.851 161.526 509.563 160.689C514.096 159.668 518.622 164.213 521.92 166.736L522.128 166.894C523.697 168.071 525.248 169.269 526.796 170.475C526.634 161.924 527.714 153.284 532.129 145.915C535.242 140.718 539.906 136.869 543.897 132.403C548.34 127.43 550.66 121.318 554.682 116.139C555.2 115.473 555.914 115.114 556.687 115C556.842 110.837 557.455 106.632 557.929 102.513L558.066 101.28C558.545 96.8052 559.677 91.3392 557.486 87.1482C555.417 83.1897 550.668 80.3955 547.152 77.7097L544.28 75.4825M338.074 20.241C336.238 21.303 334.522 22.624 332.965 24.275C328.064 29.474 324.56 35.944 321.15 42.168C319.314 45.52 317.544 48.909 315.693 52.253C314.888 53.708 314.06 55.147 313.223 56.584C312.836 57.246 311.686 58.562 311.116 59.373C311.749 60.2604 312.404 61.1342 313.072 61.9986C313.327 62.3284 330.908 81.4797 337.036 88.975C346.42 100.456 354.808 112.583 361.979 125.563C369.001 138.274 374.347 151.732 380.852 164.689C384.108 171.176 387.744 177.617 392.379 183.231C392.558 183.45 392.747 183.657 392.93 183.873C394.699 179.094 399.232 173.977 401.458 171.039L401.666 170.762C406.715 163.956 412.047 157.355 417.495 150.866C422.471 144.941 427.573 139.143 432.799 133.442L434.765 131.308C438.406 127.375 443.031 121.49 448.361 118.68C447.79 117.662 447.129 116.655 446.369 115.661C441.375 109.135 434.315 104.399 427.35 100.126L422.832 97.3781C405.804 87.0013 389.042 76.1436 374.259 62.661C366.438 55.527 358.725 48.054 352.151 39.733L349.826 36.7909M366.486 15.104C358.512 15.773 349.901 15.614 342.532 18.212C349.083 24.405 355.31 31.092 361.707 37.389C362.276 33.13 363.44 28.923 364.426 24.77" transform="translate(18.9997 -5.000531)" fill="#000000" stroke="none"></path></g><g transform="translate(225 0)"><g><g><path d="M395.901 175.053C392.111 112.851 371.927 42.3305 312.523 11.7905C181.564 -40.7675 9.3796 91.5885 0.263603 226.8C-2.9144 273.085 22.7836 323.66 69.7446 336.527C80.1856 350.36 95.9756 358.809 111.561 366.141C297.188 462.448 417.095 384.16 395.901 175.053L395.901 175.053Z" transform="translate(36 94.99951)" fill="#FFFFFF" stroke="none"></path><path d="M559.189 199.517C552.629 181.297 545.699 163.217 538.409 145.277C531.309 127.817 524.896 109.98 516.079 93.3471C463.419 -5.99291 367.659 -5.99291 318.159 6.98709C292.489 -4.07291 244.408 -0.95317 217.679 9.02709C174.407 25.1841 121.658 88.7421 103.623 117.298C63.8039 180.347 38.9539 264.264 65.4039 337.12C68.8609 346.642 73.2699 355.461 78.2339 363.96C75.1069 368.198 71.5079 372.212 67.5209 376.156C55.6729 387.878 43.8249 399.214 33.5899 412.435C23.4189 425.574 14.9869 439.546 8.70993 454.951C-3.12608 484.003 -3.69607 516.899 11.9519 544.62C25.5659 568.74 49.6829 586.701 76.8539 588.414C78.2489 588.608 79.6459 588.786 81.0489 588.927C84.6489 594.857 89.0389 600.317 94.0489 605.077C109.399 619.677 145.989 627.167 166.859 627.647C167.929 628.507 169.009 629.367 170.089 630.217C182.859 640.267 196.259 650.407 210.919 657.557C220.849 662.407 233.869 666.457 244.229 662.957C248.929 666.097 256.639 665.437 261.299 662.867C268.959 658.647 275.189 651.047 278.979 643.267C288.169 624.377 285.959 603.707 283.599 583.527C280.999 561.237 278.499 538.937 275.959 516.647C273.969 499.217 271.889 481.497 266.589 464.707C263.849 456.007 260.259 447.647 255.619 439.787C255.739 439.127 255.719 438.467 255.529 437.847C254.009 432.907 250.869 430.317 247.149 426.957C246.669 426.527 246.189 426.087 245.719 425.637C243.859 423.517 241.869 421.547 239.739 419.877C238.919 419.047 238.109 418.207 237.299 417.367C230.569 410.317 224.209 402.907 218.559 394.967C213.079 387.267 208.129 379.227 203.419 371.037C198.629 362.707 195.459 353.517 190.679 345.247C190.269 344.537 189.229 344.397 188.649 344.987C187.169 346.517 186.219 348.217 186.399 350.007L185.659 350.117C185.379 347.417 182.889 345.217 179.509 345.807C174.449 346.687 170.289 347.017 165.909 345.337C166.679 340.227 167.389 335.107 168.089 329.977C169.369 320.537 170.559 311.067 171.579 301.597C174.049 302.187 176.499 303.037 178.899 304.117C182.319 305.647 185.549 307.707 188.309 310.237C191.029 312.737 192.909 316.107 196.229 317.847C200.049 319.837 204.659 316.547 203.539 312.227C201.269 303.497 188.419 298.497 180.469 296.847C177.739 296.277 174.949 296.037 172.159 296.097C172.789 290.017 173.349 283.937 173.809 277.847C174.029 274.967 174.229 272.087 174.419 269.197C180.599 267.327 187.219 266.767 193.649 267.647C195.769 269.337 197.889 271.007 199.939 272.697C206.449 278.077 212.929 283.487 219.329 288.997C219.909 289.487 220.479 289.977 221.059 290.477C224.859 293.747 229.599 290.507 228.959 285.877C223.739 247.937 246.979 217.757 274.189 194.377C304.309 168.487 359.069 165.472 394.889 120.627C411.386 123.985 448.219 133.957 463.419 158.177C484.699 192.117 481.919 222.527 483.539 261.027C485.159 299.557 489.279 339.747 480.529 377.737C472.459 412.767 450.609 442.697 416.709 456.457C415.869 456.797 415.019 457.127 414.169 457.447C396.639 464.057 377.509 465.927 359.069 462.447C338.659 458.587 321.619 449.247 304.639 437.757C303.659 437.107 302.229 438.447 302.969 439.427C325.349 469.087 369.309 478.997 404.179 471.167C405.809 470.797 407.429 470.397 409.039 469.957C401.239 492.387 402.809 517.007 412.969 538.847C419.079 551.987 428.399 563.357 439.749 572.327C452.259 582.207 467.779 590.187 476.459 604.057C484.409 616.767 482.049 631.047 468.439 638.387C465.009 640.247 463.689 646.257 467.089 648.897C468.389 649.897 469.689 650.917 471.019 651.917C478.639 657.667 499.569 668.467 502.959 668.867C533.059 672.437 553.299 650.337 566.269 624.267C581.499 593.667 577.539 556.377 560.759 527.237C547.299 503.857 520.789 480.817 531.329 451.227C535.089 440.657 542.779 431.647 550.249 423.507C558.769 414.237 567.929 405.557 576.099 395.957C584.219 386.427 591.419 376.057 595.439 364.097C601.309 346.617 598.389 327.717 593.979 310.267C584.529 272.807 572.259 235.847 559.189 199.517Z" transform="translate(-84.99982 31.84301)" fill="#000000" stroke="none"></path></g></g><g transform="translate(159 186)"><g><path d="M64.6851 0.328928L65.3343 0.227903C70.2426 -0.481436 73.5798 0.335303 76.7711 4.52993C78.2921 6.52893 77.8231 9.54793 76.7711 11.5909C74.2481 16.4921 68.445 17.0017 63.0464 17.4758C61.1741 17.6402 59.3504 17.8003 57.7291 18.1379C51.5821 19.4169 45.4501 21.1579 39.6981 23.6919C33.8291 26.2779 28.3201 29.3369 22.9481 32.8299C18.0891 35.9909 13.6821 40.7419 8.13109 42.5809C7.88109 42.6639 7.58009 42.4399 7.59576 42.1749C7.99109 35.8619 13.2641 30.0669 17.3481 25.5709C22.0721 20.3719 27.8171 15.7559 33.8001 12.0859C39.9741 8.29993 46.6481 5.18293 53.5581 3.00893C57.1971 1.86393 60.9201 0.953928 64.6851 0.328928ZM170.069 4.01173C161.004 1.59673 145.641 -0.136272 139.461 8.90073C139.244 9.21773 139.459 9.71373 139.825 9.79573C149.132 11.8917 158.055 13.8077 166.861 17.7407C174.372 21.0969 180.475 25.6524 186.638 30.686L188.009 31.8121L190.151 33.5887C198.179 40.2677 208.86 29.9557 201.721 22.0187C193.751 13.1587 181.435 7.03773 170.069 4.01173ZM94.9638 47.2562C83.9368 39.2272 70.1108 35.2152 56.5218 35.3312C53.6798 35.3562 50.9168 35.5612 48.2258 35.9382C30.3678 34.0672 12.4588 49.6552 5.38279 65.6392C-3.78121 86.3422 -3.01521 118.73 21.7288 127.705C26.927 129.59 32.4683 130.427 37.9527 131.134L41.9353 131.637C49.3585 132.546 56.8901 133.208 64.3668 133.141C78.7508 133.014 90.1908 127.501 98.9448 116.067C106.744 105.882 113.776 92.9482 113.786 79.7932C113.796 66.2822 105.514 54.9392 94.9638 47.2562ZM212.162 100.318C208.623 111.012 200.906 119.247 190.156 122.867C179.502 126.456 167.653 125.148 156.762 123.208C154.38 122.783 151.965 122.315 149.555 121.768C151.527 122.99 153.27 124.71 154.937 126.528C157.403 129.217 159.639 132.05 160.317 135.416C160.99 138.755 159.93 141.295 157.996 143.213C155.021 146.162 150.222 147.751 146.158 148.629C137.056 150.596 127.939 150.29 118.882 148.273C116.57 147.759 115.001 146.519 114.121 144.901C113.052 142.937 112.964 140.494 113.578 138.268C114.191 136.044 115.516 133.994 117.439 132.859C119.022 131.925 121.002 131.669 123.249 132.416C127.759 133.917 132.237 134.911 137.001 135.026C139.017 135.073 141.047 135.013 143.061 134.828C144.199 134.724 145.335 134.579 146.465 134.398C145.799 133.512 145.153 132.609 144.522 131.698C143.775 130.621 143.049 129.529 142.355 128.419C140.349 125.206 138.678 121.904 137.21 118.418C136.739 117.301 136.303 116.179 135.884 115.054C135.823 114.892 135.763 114.729 135.703 114.567C135.574 114.458 135.445 114.349 135.318 114.239C132.447 111.755 130.04 108.695 128.337 104.905C123.727 94.6395 124.478 81.8966 127.275 71.2371C129.517 62.6929 134.465 54.7901 141.002 49.4212C142.143 47.5432 142.897 46.404 143.82 45.4446C147.577 41.5358 152.82 38.8996 157.936 37.296C169.362 33.7129 181.807 36.2836 191.493 43.1058C200.436 49.4048 207.437 58.8518 211.221 69.3589C214.804 79.3093 215.503 90.2234 212.162 100.318ZM79.4728 50.5622C62.4558 42.9242 41.7798 45.2112 25.2728 53.3622C18.7338 60.4962 13.9548 69.4872 12.0208 77.7412C9.95579 86.5522 10.2578 96.0432 13.3628 104.583C17.1538 115.008 26.4888 117.59 36.5588 119.192L40.4684 119.806L42.1086 120.055C52.0033 121.531 62.8209 122.679 72.3298 120.831C82.9272 118.77 89.6574 110.209 94.9545 101.432L95.2018 101.02C100.703 91.8232 105.308 80.6382 100.694 70.1002C96.7708 61.1432 88.2018 54.4802 79.4728 50.5622ZM161.106 51.5656C167.412 49.3996 174.073 49.9876 179.913 53.2236C192.592 60.2486 199.794 75.7386 198.323 89.9676C197.701 95.9906 195.301 102.091 190.213 105.685C184.371 109.811 176.733 109.976 169.763 109.492L168.408 109.389L163.311 108.964C156.698 108.384 149.291 107.384 144.398 103.218C139.035 98.6491 137.846 90.3099 137.72 83.4933L137.71 82.7138L137.708 81.9496C137.724 76.1826 138.535 70.3246 140.5 64.9076C142.186 65.1176 144.037 64.4856 145.095 62.9056L145.366 62.5171C147.463 59.6191 150.074 58.5323 152.869 56.3866L153.776 55.7006C156.049 54.0076 158.393 52.4974 161.106 51.5656ZM52.795 54.5381C62.166 49.7541 73.423 50.9531 81.361 56.9491C80.656 57.0871 79.962 57.2631 79.27 57.6101C77.469 58.5131 76.351 60.3211 75.925 62.2451C75.445 64.4201 76.572 66.4791 78.719 67.1651C80.587 67.7611 82.802 68.0341 84.537 66.8991C85.446 66.3051 86.081 65.5221 86.498 64.5361L86.557 64.3911L86.6303 64.2847L86.6581 64.2349C86.6645 64.216 86.6317 64.252 86.58 64.3331C86.633 64.2101 86.682 64.0871 86.731 63.9621C86.804 63.8131 86.874 63.6631 86.931 63.5081C87.032 63.4211 87.124 63.3241 87.217 63.2271C88.659 65.4461 89.791 67.9521 90.51 70.7401C95.124 88.6351 76.204 107.206 59.301 109.064C52.913 109.766 47.088 108.245 42.254 105.247C42.298 105.188 42.347 105.135 42.387 105.073C44.329 105.422 46.647 104.553 47.352 102.387C49.151 96.8621 47.306 90.3991 41.286 88.5941C37.412 87.4321 33.448 88.7161 30.679 91.3641C28.585 86.2391 27.836 80.4691 28.827 74.6901C30.225 66.5371 35.143 59.1901 42.797 55.7981C46.524 54.1451 49.736 53.7981 52.795 54.5381ZM151.767 65.1295L151.482 65.5789C147.663 71.7409 146.72 79.1059 148.675 85.5869C148.683 85.7066 148.695 85.8259 148.708 85.9451L148.797 86.6589C151.32 86.0129 154.008 86.5199 155.814 88.7309C156.539 88.7329 157.255 88.8919 157.833 89.2289L158.028 89.3502C159.797 90.517 160.098 92.6435 159.353 94.5037L159.274 94.688L159.288 94.662C159.347 94.5497 159.125 95.1893 159.1 95.2589L158.955 95.638C158.856 95.8895 158.751 96.1386 158.643 96.3859C158.211 97.3689 157.626 98.1629 156.915 98.9679C156.645 99.2739 156.332 99.5049 155.997 99.6829C160.161 102.975 165.591 104.581 171.021 104.026C176.886 103.427 181.769 100.467 184.937 96.1059C185.268 95.8159 185.603 95.5319 185.918 95.2179C193.721 87.4219 194.64 73.3679 187.989 64.6219C187.584 64.0909 187.159 63.6229 186.721 63.2029C186.535 63.8789 186.198 64.5359 185.715 64.9839C184.827 65.8099 183.745 66.3509 182.516 66.3729C181.678 66.3899 180.823 66.1669 180.096 65.7429C179.036 65.1239 178.253 64.1009 177.704 63.0219C177.198 62.0259 177.054 61.0239 177.301 59.9399C177.309 59.9069 177.319 59.8751 177.331 59.8439L177.405 59.6569C174.695 57.9899 171.395 57.2739 168.243 57.7019C167.531 57.2609 166.741 56.9209 165.935 56.7099C160.198 55.2069 154.663 60.6733 151.767 65.1295ZM59.1248 152.988C58.8718 152.829 58.5398 152.897 58.3298 153.091C56.4748 154.804 56.4508 157.175 55.7878 159.532C54.8718 162.79 53.8158 166.052 52.6748 169.237C50.4508 175.45 47.8918 181.968 43.8078 187.222L43.6421 187.44C40.1686 192.126 40.6221 198.728 46.5918 201.243C51.6778 203.387 56.7898 200.384 58.2048 195.53L58.2658 195.638C60.8528 189.485 62.9938 183.084 63.7368 176.457C64.4278 176.821 65.1148 177.18 65.7738 177.534L66.8531 178.109C70.8192 180.202 74.8814 182.115 79.0788 183.694C89.0058 187.428 99.2578 190.003 109.725 191.68C119.407 193.23 129.169 194.127 138.969 193.31C148.557 192.51 159.889 190.647 168.195 185.48C177.871 179.458 169.445 165.735 159.391 170.418C155.375 172.288 151.936 174.423 147.618 175.711C143.965 176.8 140.207 177.616 136.427 178.105C127.624 179.242 118.54 178.995 109.712 178.319C100.616 177.622 91.5228 176.23 82.5968 174.349L79.9264 173.798C76.3634 173.076 72.7932 172.39 69.2428 171.605C67.5708 171.235 65.8028 170.705 64.0128 170.239C63.9638 164.925 63.4518 155.724 59.1248 152.988Z" transform="translate(36.00021 35.99987)" fill="#000000" fill-rule="evenodd" stroke="none"></path></g></g><g transform="translate(123 338)"></g><g transform="translate(47 241)"></g></g></g></svg>